<svg width="32" height="32" viewBox="0 0 32 32" fill="none" xmlns="http://www.w3.org/2000/svg">
<mask id="mask0_322_80" style="mask-type:alpha" maskUnits="userSpaceOnUse" x="0" y="0" width="32" height="32">
<rect width="32" height="32" fill="#D9D9D9"/>
</mask>
<g mask="url(#mask0_322_80)">
<path d="M9.19467 16.8377L16.5927 24.2273C16.9202 24.5545 16.9196 25.0856 16.5913 25.412C16.2645 25.737 15.7363 25.7363 15.4103 25.4103L6.70711 16.7071C6.31658 16.3166 6.31658 15.6834 6.70711 15.2929L15.4103 6.58967C15.7363 6.26373 16.2645 6.26299 16.5913 6.588C16.9196 6.91445 16.9202 7.44549 16.5927 7.77267L9.19467 15.1623L25.1623 15.1623C25.625 15.1623 26 15.5374 26 16C26 16.4626 25.625 16.8377 25.1623 16.8377L9.19467 16.8377Z" fill="white"/>
</g>
</svg>
