<svg width="20" height="18" viewBox="0 0 20 18" fill="none" xmlns="http://www.w3.org/2000/svg">
<path d="M9.99905 0C15.5229 0 20 3.4174 20 7.63411C20 11.8499 15.5229 15.2673 10 15.2673C9.45011 15.2663 8.90081 15.2321 8.35524 15.1647L4.15714 17.8537C3.68 18.1008 3.51143 18.0738 3.70762 17.4685L4.55714 14.038C1.81429 12.6763 0 10.3165 0 7.63411C0 3.41833 4.47619 0 10 0M15.6267 7.51752L17.0267 6.18937C17.1075 6.1072 17.1525 5.99754 17.1524 5.88348C17.1522 5.76942 17.1069 5.65987 17.0259 5.5779C16.9449 5.49593 16.8346 5.44794 16.7182 5.44404C16.6018 5.44014 16.4884 5.48064 16.4019 5.557L14.5657 7.29741V5.85919C14.5657 5.74243 14.5184 5.63046 14.4341 5.5479C14.3497 5.46534 14.2354 5.41896 14.1162 5.41896C13.997 5.41896 13.8826 5.46534 13.7983 5.5479C13.714 5.63046 13.6667 5.74243 13.6667 5.85919V8.24409C13.6508 8.31224 13.6508 8.38301 13.6667 8.45115V9.7933C13.6667 9.91006 13.714 10.022 13.7983 10.1046C13.8826 10.1872 13.997 10.2335 14.1162 10.2335C14.2354 10.2335 14.3497 10.1872 14.4341 10.1046C14.5184 10.022 14.5657 9.91006 14.5657 9.7933V8.52204L14.9724 8.13683L16.3324 10.033C16.3663 10.0803 16.4095 10.1207 16.4594 10.1517C16.5092 10.1827 16.5648 10.2038 16.623 10.2137C16.6812 10.2237 16.7408 10.2223 16.7985 10.2097C16.8562 10.1971 16.9107 10.1735 16.959 10.1403C17.0074 10.107 17.0486 10.0648 17.0802 10.0159C17.1119 9.96708 17.1334 9.91261 17.1436 9.85562C17.1538 9.79863 17.1524 9.74024 17.1395 9.68378C17.1266 9.62732 17.1025 9.57389 17.0686 9.52655L15.6267 7.51752ZM12.8095 9.31203H11.419V5.87318C11.4137 5.76005 11.3641 5.65328 11.2805 5.57507C11.1968 5.49685 11.0856 5.45321 10.97 5.45321C10.8544 5.45321 10.7432 5.49685 10.6595 5.57507C10.5759 5.65328 10.5263 5.76005 10.521 5.87318V9.75226C10.521 9.99476 10.721 10.1925 10.9695 10.1925H12.8095C12.9287 10.1925 13.0431 10.1461 13.1274 10.0636C13.2117 9.981 13.259 9.86902 13.259 9.75226C13.259 9.63551 13.2117 9.52353 13.1274 9.44097C13.0431 9.35841 12.9287 9.31203 12.8095 9.31203ZM7.23143 8.29446L7.89429 6.70142L8.50191 8.29353L7.23143 8.29446ZM9.63428 8.74868L9.63619 8.73376C9.63587 8.62287 9.59265 8.51622 9.51524 8.4353L8.51905 5.82375C8.47729 5.6993 8.39774 5.59029 8.29104 5.51129C8.18433 5.43229 8.05555 5.38707 7.92191 5.38165C7.7874 5.38159 7.65602 5.42138 7.54502 5.49579C7.43403 5.5702 7.34862 5.67574 7.3 5.79857L5.71714 9.5993C5.67206 9.7074 5.67267 9.82861 5.71883 9.93627C5.765 10.0439 5.85295 10.1292 5.96333 10.1734C6.07371 10.2175 6.19748 10.2169 6.30742 10.1717C6.41735 10.1265 6.50444 10.0404 6.54952 9.93227L6.86571 9.17399H8.83714L9.12095 9.92015C9.14031 9.97592 9.17091 10.0273 9.21092 10.0713C9.25093 10.1153 9.29956 10.151 9.3539 10.1762C9.40825 10.2015 9.46722 10.2158 9.52732 10.2183C9.58741 10.2208 9.64741 10.2115 9.70377 10.1909C9.76012 10.1703 9.81168 10.1388 9.85539 10.0983C9.8991 10.0579 9.93407 10.0092 9.95823 9.95528C9.98239 9.90133 9.99524 9.84318 9.99604 9.78428C9.99684 9.72537 9.98555 9.66691 9.96286 9.61236L9.63428 8.74868ZM6.46952 5.87785C6.46978 5.82004 6.45835 5.76276 6.43591 5.7093C6.41347 5.65584 6.38045 5.60725 6.33876 5.56634C6.29707 5.52542 6.24753 5.49298 6.19298 5.47089C6.13844 5.4488 6.07998 5.43749 6.02095 5.43761H2.93048C2.81126 5.43761 2.69692 5.48399 2.61262 5.56655C2.52831 5.64911 2.48095 5.76109 2.48095 5.87785C2.48095 5.9946 2.52831 6.10658 2.61262 6.18914C2.69692 6.2717 2.81126 6.31808 2.93048 6.31808H4.03524V9.80263C4.03524 9.91938 4.0826 10.0314 4.1669 10.1139C4.2512 10.1965 4.36554 10.2429 4.48476 10.2429C4.60398 10.2429 4.71832 10.1965 4.80262 10.1139C4.88693 10.0314 4.93429 9.91938 4.93429 9.80263V6.31808H6.02C6.0791 6.31833 6.13767 6.30711 6.19232 6.28507C6.24698 6.26303 6.29663 6.23062 6.33842 6.18969C6.38022 6.14876 6.41332 6.10013 6.43582 6.04661C6.45832 5.99308 6.46978 5.93573 6.46952 5.87785Z" fill="#D1CFCD"/>
</svg>
