<svg width="18" height="18" viewBox="0 0 18 18" fill="none" xmlns="http://www.w3.org/2000/svg">
<path fill-rule="evenodd" clip-rule="evenodd" d="M13.6903 1.87353C12.7836 1.75159 11.5861 1.75 9.88889 1.75H8.11111C6.41402 1.75 5.21665 1.75182 4.31018 1.87385C3.42527 1.99298 2.93034 2.21419 2.57188 2.57234C2.21375 2.93016 1.99257 3.42471 1.87353 4.30975C1.75159 5.21636 1.75 6.4139 1.75 8.11111V9.88889C1.75 11.586 1.75182 12.7833 1.87385 13.6898C1.99298 14.5747 2.21419 15.0697 2.57234 15.4281C2.93016 15.7862 3.42471 16.0074 4.30975 16.1265C5.21636 16.2484 6.4139 16.25 8.11111 16.25H9.88889C11.586 16.25 12.7833 16.2482 13.6898 16.1262C14.5747 16.007 15.0697 15.7858 15.4281 15.4277C15.7862 15.0698 16.0074 14.5753 16.1265 13.6903C16.2484 12.7836 16.25 11.5861 16.25 9.88889V8.11111C16.25 6.41402 16.2482 5.21665 16.1262 4.31018C16.007 3.42527 15.7858 2.93034 15.4277 2.57188C15.0698 2.21375 14.5753 1.99257 13.6903 1.87353ZM13.8902 0.386916C14.9416 0.528325 15.8057 0.828025 16.4888 1.51167C17.1715 2.195 17.4712 3.05873 17.6127 4.11004C17.75 5.1298 17.75 6.43067 17.75 8.06302V9.94475C17.75 11.5733 17.75 12.872 17.6131 13.8902C17.4717 14.9416 17.172 15.8057 16.4883 16.4888C15.805 17.1715 14.9413 17.4712 13.89 17.6127C12.8702 17.75 11.5693 17.75 9.93698 17.75H8.05525C6.42666 17.75 5.12803 17.75 4.10981 17.6131C3.05841 17.4717 2.19429 17.172 1.51122 16.4883C0.828481 15.805 0.528797 14.9413 0.387262 13.89C0.249977 12.8702 0.249987 11.5693 0.250001 9.93702L0.25 8.05527C0.249983 6.42667 0.249968 5.12803 0.386916 4.10981C0.528325 3.05841 0.828025 2.19429 1.51167 1.51122C2.195 0.828481 3.05873 0.528797 4.11004 0.387262C5.12979 0.249977 6.43066 0.249987 8.06299 0.250001L9.94474 0.25C11.5733 0.249983 12.872 0.249968 13.8902 0.386916Z" fill="#D1CFCD"/>
<path d="M13 6.33317C13.7363 6.33317 14.3333 5.73622 14.3333 4.99984C14.3333 4.26346 13.7363 3.6665 13 3.6665C12.2636 3.6665 11.6666 4.26346 11.6666 4.99984C11.6666 5.73622 12.2636 6.33317 13 6.33317Z" fill="#D1CFCD"/>
<path fill-rule="evenodd" clip-rule="evenodd" d="M9.00004 7.0835C7.94149 7.0835 7.08337 7.94162 7.08337 9.00016C7.08337 10.0587 7.94149 10.9168 9.00004 10.9168C10.0586 10.9168 10.9167 10.0587 10.9167 9.00016C10.9167 7.94162 10.0586 7.0835 9.00004 7.0835ZM5.58337 9.00016C5.58337 7.11319 7.11307 5.5835 9.00004 5.5835C10.887 5.5835 12.4167 7.11319 12.4167 9.00016C12.4167 10.8871 10.887 12.4168 9.00004 12.4168C7.11307 12.4168 5.58337 10.8871 5.58337 9.00016Z" fill="#D1CFCD"/>
</svg>
