<svg width="32" height="32" viewBox="0 0 32 32" fill="none" xmlns="http://www.w3.org/2000/svg">
<mask id="mask0_322_74" style="mask-type:alpha" maskUnits="userSpaceOnUse" x="0" y="0" width="32" height="32">
<rect width="32" height="32" fill="#D9D9D9"/>
</mask>
<g mask="url(#mask0_322_74)">
<path d="M5.50419 23.5127C5.04165 23.5127 4.66669 23.1377 4.66669 22.6752C4.66669 22.2126 5.04165 21.8377 5.50419 21.8377H26.4959C26.9584 21.8377 27.3334 22.2126 27.3334 22.6752C27.3334 23.1377 26.9584 23.5127 26.4959 23.5127H5.50419ZM5.50435 16.8377C5.04172 16.8377 4.66669 16.4626 4.66669 16C4.66669 15.5374 5.04172 15.1623 5.50435 15.1623H26.4957C26.9583 15.1623 27.3334 15.5374 27.3334 16C27.3334 16.4626 26.9583 16.8377 26.4957 16.8377H5.50435ZM5.50419 10.1623C5.04165 10.1623 4.66669 9.78737 4.66669 9.32484C4.66669 8.8623 5.04165 8.48734 5.50419 8.48734H26.4959C26.9584 8.48734 27.3334 8.8623 27.3334 9.32484C27.3334 9.78737 26.9584 10.1623 26.4959 10.1623H5.50419Z" fill="white"/>
</g>
</svg>
